<svg xmlns="http://www.w3.org/2000/svg" version="1.1" viewBox="0.00 0.00 1000.00 1000.00" width="1000.00" height="1000.00">
<path fill="#222" d="&#10;  M 562.28 328.49&#10;  Q 567.67 322.11 571.71 316.72&#10;  C 575.06 312.23 576.00 309.77 580.91 310.56&#10;  C 585.31 311.26 593.24 320.69 594.98 323.22&#10;  Q 597.61 327.06 594.16 329.93&#10;  Q 585.14 337.43 577.24 343.45&#10;  A 0.45 0.45 0.0 0 0 577.17 344.10&#10;  Q 603.99 375.93 599.58 418.47&#10;  Q 597.09 442.54 583.59 462.10&#10;  Q 565.29 488.63 536.52 500.00&#10;  Q 521.85 505.80 507.50 506.78&#10;  Q 505.13 506.95 497.51 506.92&#10;  C 461.05 506.82 426.83 485.73 410.24 452.99&#10;  Q 395.63 424.17 400.66 390.93&#10;  C 404.12 368.08 416.14 347.43 433.42 331.91&#10;  Q 456.33 311.32 487.43 308.66&#10;  A 0.84 0.83 87.8 0 0 488.20 307.82&#10;  L 488.20 290.21&#10;  A 0.26 0.26 0.0 0 0 487.94 289.95&#10;  L 467.53 289.95&#10;  A 2.56 2.55 -30.6 0 1 466.31 289.64&#10;  C 461.93 287.23 461.74 282.98 461.85 278.01&#10;  Q 461.94 273.84 463.38 271.81&#10;  C 465.91 268.23 469.47 268.58 474.22 268.58&#10;  Q 492.91 268.60 525.52 268.58&#10;  C 531.73 268.58 536.52 269.15 537.79 275.48&#10;  C 538.36 278.33 538.29 283.55 536.93 286.49&#10;  C 535.71 289.15 533.26 289.98 530.19 289.97&#10;  Q 523.86 289.94 511.95 289.96&#10;  A 0.41 0.41 0.0 0 0 511.54 290.37&#10;  L 511.54 307.93&#10;  A 0.72 0.71 3.1 0 0 512.18 308.64&#10;  Q 539.61 311.37 561.18 328.60&#10;  A 0.80 0.79 38.9 0 0 562.28 328.49&#10;  Z&#10;  M 425.62 385.44&#10;  Q 421.50 399.42 422.79 414.03&#10;  C 426.53 456.17 464.17 487.85 506.85 483.69&#10;  Q 527.22 481.70 543.79 470.45&#10;  C 557.65 461.03 569.28 446.07 574.24 429.26&#10;  C 579.20 412.45 577.54 393.57 571.01 378.14&#10;  Q 563.20 359.70 547.16 346.98&#10;  C 513.57 320.32 464.76 326.51 438.76 359.88&#10;  Q 429.75 371.45 425.62 385.44&#10;  Z"/>
<path fill="#222" d="&#10;  M 500.10 398.20&#10;  Q 501.46 397.47 504.10 394.85&#10;  Q 518.33 380.70 533.92 364.92&#10;  C 536.55 362.25 540.22 359.69 544.30 360.51&#10;  C 550.27 361.70 553.33 366.95 550.25 372.71&#10;  A 3.79 3.78 80.9 0 1 549.66 373.53&#10;  Q 528.95 395.25 518.27 406.77&#10;  Q 514.21 411.15 513.75 413.03&#10;  Q 512.43 418.42 511.56 419.88&#10;  Q 507.72 426.33 501.47 426.83&#10;  C 494.06 427.42 488.87 422.64 486.07 416.22&#10;  C 484.89 413.52 481.02 410.32 478.68 408.10&#10;  Q 467.32 397.34 457.95 388.80&#10;  C 453.66 384.90 452.57 378.51 457.01 374.45&#10;  Q 460.59 371.17 465.66 372.17&#10;  C 468.22 372.67 470.14 374.44 472.24 376.26&#10;  Q 490.79 392.38 497.45 397.94&#10;  A 2.38 2.36 -39.2 0 0 500.10 398.20&#10;  Z"/>
<path fill="#222" d="&#10;  M 144.15 647.55&#10;  L 180.37 516.20&#10;  A 0.85 0.84 7.6 0 1 181.19 515.58&#10;  L 214.47 515.58&#10;  A 0.88 0.88 0.0 0 1 215.32 516.22&#10;  L 252.20 648.12&#10;  A 0.23 0.23 0.0 0 0 252.64 648.11&#10;  L 287.82 516.20&#10;  A 0.80 0.80 0.0 0 1 288.59 515.61&#10;  L 318.57 515.61&#10;  A 0.33 0.33 0.0 0 1 318.89 516.03&#10;  L 270.38 689.01&#10;  A 0.75 0.75 0.0 0 1 269.66 689.56&#10;  L 234.32 689.56&#10;  A 0.61 0.60 81.6 0 1 233.74 689.12&#10;  Q 228.91 671.33 211.75 609.99&#10;  Q 201.72 574.12 198.36 561.41&#10;  Q 198.28 561.12 198.12 560.98&#10;  A 0.09 0.08 -60.0 0 0 197.98 561.02&#10;  L 162.65 689.15&#10;  A 0.54 0.53 -82.0 0 1 162.14 689.54&#10;  L 126.47 689.54&#10;  A 0.69 0.69 0.0 0 1 125.81 689.05&#10;  L 75.32 516.30&#10;  A 0.53 0.52 81.7 0 1 75.82 515.62&#10;  L 105.76 515.62&#10;  A 1.31 1.30 -7.5 0 1 107.02 516.58&#10;  L 143.64 647.55&#10;  A 0.27 0.26 44.8 0 0 144.15 647.55&#10;  Z"/>
<path fill="#222" d="&#10;  M 471.46 515.59&#10;  L 500.07 515.59&#10;  A 0.53 0.52 -90.0 0 1 500.59 516.12&#10;  Q 500.52 607.03 500.70 636.67&#10;  Q 500.78 649.72 499.26 655.43&#10;  C 493.55 676.90 475.00 689.61 453.00 689.59&#10;  Q 406.37 689.56 389.00 689.62&#10;  C 382.84 689.64 377.67 689.34 372.24 687.61&#10;  Q 349.79 680.44 342.22 657.60&#10;  C 340.93 653.70 339.85 647.28 339.85 642.40&#10;  Q 339.86 603.76 339.86 516.01&#10;  A 0.36 0.35 90.0 0 1 340.21 515.65&#10;  L 369.45 515.65&#10;  A 0.58 0.58 0.0 0 1 370.03 516.23&#10;  Q 370.04 596.66 370.08 636.76&#10;  C 370.09 646.63 374.77 655.05 383.94 658.72&#10;  Q 387.78 660.25 397.72 660.24&#10;  Q 428.14 660.22 452.09 660.12&#10;  A 3.46 3.08 -48.4 0 0 452.85 660.03&#10;  Q 465.92 656.88 469.88 646.20&#10;  Q 471.36 642.20 471.35 629.11&#10;  Q 471.31 535.93 471.34 517.26&#10;  Q 471.34 516.44 471.16 516.07&#10;  A 0.34 0.33 77.1 0 1 471.46 515.59&#10;  Z"/>
<rect fill="#222" x="526.96" y="515.64" width="29.08" height="173.94" rx="0.30"/>
<path fill="#222" d="&#10;  M 612.90 602.56&#10;  Q 612.90 636.16 612.90 636.25&#10;  C 612.94 646.29 617.27 655.12 626.77 658.74&#10;  Q 631.03 660.36 642.95 660.30&#10;  Q 666.42 660.19 735.40 660.27&#10;  A 0.37 0.36 -0.0 0 1 735.77 660.63&#10;  L 735.77 689.03&#10;  A 0.45 0.45 0.0 0 1 735.32 689.48&#10;  Q 638.48 689.57 629.27 689.47&#10;  C 602.57 689.18 583.16 668.71 582.82 642.26&#10;  Q 582.81 640.85 582.80 602.57&#10;  Q 582.80 564.28 582.81 562.88&#10;  C 583.14 536.42 602.55 515.95 629.25 515.65&#10;  Q 638.46 515.55 735.30 515.61&#10;  A 0.45 0.45 0.0 0 1 735.75 516.06&#10;  L 735.75 544.46&#10;  A 0.37 0.36 -0.0 0 1 735.38 544.82&#10;  Q 666.40 544.92 642.93 544.81&#10;  Q 631.01 544.76 626.75 546.38&#10;  C 617.25 550.00 612.93 558.83 612.89 568.87&#10;  Q 612.89 568.96 612.90 602.56&#10;  Z"/>
<path fill="#222" d="&#10;  M 762.82 602.63&#10;  Q 762.81 564.33 762.83 562.92&#10;  C 763.15 536.46 782.56 515.97 809.28 515.67&#10;  Q 818.49 515.56 915.38 515.61&#10;  A 0.45 0.45 0.0 0 1 915.83 516.06&#10;  L 915.84 544.48&#10;  A 0.37 0.36 -0.0 0 1 915.47 544.84&#10;  Q 846.46 544.95 822.97 544.84&#10;  Q 811.05 544.79 806.79 546.41&#10;  C 797.28 550.04 792.96 558.87 792.92 568.92&#10;  Q 792.92 569.00 792.93 602.62&#10;  Q 792.94 636.24 792.94 636.33&#10;  C 792.98 646.37 797.31 655.20 806.82 658.82&#10;  Q 811.08 660.45 823.01 660.38&#10;  Q 846.49 660.27 915.50 660.34&#10;  A 0.37 0.36 -0.0 0 1 915.87 660.70&#10;  L 915.87 689.12&#10;  A 0.45 0.45 0.0 0 1 915.42 689.57&#10;  Q 818.54 689.67 809.32 689.57&#10;  C 782.61 689.28 763.19 668.81 762.85 642.34&#10;  Q 762.83 640.93 762.82 602.63&#10;  Z"/>
<path fill="#222" d="&#10;  M 915.26 756.73&#10;  L 915.26 766.91&#10;  A 0.64 0.64 0.0 0 1 914.64 767.55&#10;  Q 909.66 767.65 898.77 767.54&#10;  Q 889.56 767.44 886.07 760.92&#10;  Q 884.14 757.29 884.21 746.30&#10;  Q 884.31 731.18 884.33 729.15&#10;  A 0.53 0.53 0.0 0 0 883.80 728.61&#10;  L 875.57 728.61&#10;  A 0.54 0.53 90.0 0 1 875.04 728.07&#10;  L 875.04 717.38&#10;  A 0.43 0.43 0.0 0 1 875.47 716.95&#10;  L 884.06 716.95&#10;  A 0.20 0.20 0.0 0 0 884.26 716.75&#10;  L 884.26 705.78&#10;  A 0.66 0.66 0.0 0 1 884.92 705.12&#10;  L 896.48 705.12&#10;  A 0.63 0.62 90.0 0 1 897.10 705.75&#10;  L 897.10 716.21&#10;  A 0.70 0.69 -0.0 0 0 897.80 716.90&#10;  L 914.49 716.90&#10;  A 0.59 0.59 0.0 0 1 915.08 717.49&#10;  L 915.08 727.96&#10;  A 0.59 0.58 -0.0 0 1 914.49 728.54&#10;  L 897.44 728.54&#10;  A 0.45 0.44 -90.0 0 0 897.00 728.99&#10;  Q 897.05 743.29 897.12 750.76&#10;  C 897.16 754.92 899.74 756.02 903.68 756.08&#10;  Q 911.37 756.19 914.57 756.07&#10;  A 0.67 0.66 -0.8 0 1 915.26 756.73&#10;  Z"/>
<path fill="#222" d="&#10;  M 767.87 767.58&#10;  L 756.48 767.58&#10;  A 0.61 0.61 0.0 0 1 755.87 766.97&#10;  L 755.87 717.50&#10;  A 0.66 0.66 0.0 0 1 756.53 716.84&#10;  Q 768.65 716.89 789.44 716.82&#10;  Q 798.82 716.78 801.82 718.39&#10;  C 808.82 722.15 809.45 728.17 809.41 736.44&#10;  Q 809.39 741.41 809.36 766.92&#10;  A 0.66 0.66 0.0 0 1 808.70 767.58&#10;  L 797.48 767.58&#10;  A 0.63 0.62 90.0 0 1 796.86 766.95&#10;  Q 796.93 739.11 796.84 734.87&#10;  Q 796.76 731.35 794.08 729.33&#10;  Q 792.95 728.48 788.28 728.50&#10;  Q 786.97 728.50 769.28 728.48&#10;  A 0.72 0.72 0.0 0 0 768.56 729.20&#10;  L 768.56 766.90&#10;  A 0.69 0.68 0.0 0 1 767.87 767.58&#10;  Z"/>
<path fill="#222" d="&#10;  M 869.32 748.15&#10;  L 831.62 748.15&#10;  A 0.63 0.63 0.0 0 0 830.99 748.79&#10;  C 831.06 751.81 830.71 753.58 832.83 755.57&#10;  A 2.29 2.27 66.4 0 0 834.39 756.19&#10;  L 869.35 756.19&#10;  A 0.65 0.65 0.0 0 1 870.00 756.84&#10;  L 870.00 767.12&#10;  A 0.48 0.47 0.0 0 1 869.52 767.59&#10;  Q 839.11 767.55 837.04 767.61&#10;  Q 829.26 767.84 826.15 766.18&#10;  Q 818.84 762.27 818.71 753.56&#10;  Q 818.55 742.32 818.67 731.25&#10;  C 818.81 719.68 826.04 716.25 836.60 716.83&#10;  Q 838.62 716.94 851.98 716.79&#10;  C 860.45 716.70 867.38 717.81 869.66 726.41&#10;  Q 870.16 728.29 870.15 737.18&#10;  Q 870.15 744.57 870.04 747.46&#10;  A 0.72 0.71 0.8 0 1 869.32 748.15&#10;  Z&#10;  M 831.53 737.20&#10;  L 856.75 737.24&#10;  A 0.49 0.49 0.0 0 0 857.24 736.75&#10;  L 857.25 731.92&#10;  A 3.46 3.17 -89.9 0 0 854.09 728.46&#10;  L 834.23 728.42&#10;  A 3.46 3.17 -89.9 0 0 831.05 731.88&#10;  L 831.04 736.71&#10;  A 0.49 0.49 0.0 0 0 831.53 737.20&#10;  Z"/>
<rect fill="#222" x="-7.38" y="-6.85" transform="translate(737.75,760.71) rotate(0.2)" width="14.76" height="13.70" rx="0.63"/>
</svg>